<svg version="1.1" id="Layer_1" xmlns="http://www.w3.org/2000/svg" xmlns:xlink="http://www.w3.org/1999/xlink" x="0px" y="0px"
	 width="100%" viewBox="0 0 100 100" enable-background="new 0 0 100 100" xml:space="preserve">
<path fill="#000000" opacity="1.000000" stroke="none" 
	d="
M1.000000,40.000000 
	C1.000000,27.029078 1.000000,14.058156 1.000000,1.043617 
	C34.229649,1.043617 67.459366,1.043617 101.000000,1.043617 
	C101.000000,19.686411 101.000000,38.374546 100.532059,57.503487 
	C88.720398,58.029804 77.376671,58.115314 65.731888,58.132629 
	C64.932465,58.332626 64.434105,58.600815 63.510483,58.906422 
	C61.380238,59.013165 59.675240,59.082497 57.763329,59.086029 
	C57.556416,59.020233 57.128746,58.944981 56.874489,58.613853 
	C54.556698,58.088985 52.493168,57.895248 49.903442,57.652111 
	C49.903442,54.439384 49.903442,51.418022 49.903442,47.636745 
	C46.502056,48.109089 43.730915,48.493912 40.535629,48.927895 
	C38.405819,49.028316 36.700150,49.079571 34.586021,49.070484 
	C32.803169,48.960442 31.428778,48.910744 29.813650,48.545101 
	C27.713032,48.207542 25.853148,48.185928 23.580467,48.099457 
	C21.778370,48.074009 20.389072,48.113426 18.665474,48.089310 
	C17.882288,48.072910 17.433401,48.120041 16.522413,48.103958 
	C11.040210,48.027164 6.020105,48.013584 1.000000,48.000000 
	C1.000000,46.933331 1.000000,45.866661 1.449881,44.284199 
	C5.606653,43.799187 9.313544,43.829967 13.458534,43.922134 
	C16.253351,43.934334 18.610071,43.885143 21.310791,43.887360 
	C22.114944,43.895870 22.575098,43.852982 23.271040,43.852798 
	C23.506828,43.895504 23.980236,43.820919 24.394024,43.888100 
	C26.202082,43.918938 27.596350,43.882591 29.435760,43.903374 
	C32.558399,43.917305 35.235889,43.874111 38.333187,43.885841 
	C40.161663,43.907578 41.570339,43.874390 43.377090,43.899754 
	C44.844494,43.914974 45.913826,43.871647 47.379883,43.884037 
	C48.843571,43.979343 49.910530,44.018932 50.991707,44.498817 
	C51.013687,46.701336 50.662796,48.573017 51.155437,50.187267 
	C51.483204,51.261272 53.015301,51.967739 54.383461,52.886444 
	C55.512379,52.901112 56.266186,52.868046 57.434334,52.885643 
	C59.237335,52.903698 60.625996,52.871090 62.429718,52.889645 
	C64.235809,52.905762 65.626846,52.870716 67.444023,52.888123 
	C69.585480,52.906109 71.300789,52.871651 73.430237,52.891502 
	C75.233208,52.908840 76.622055,52.871861 78.408646,52.891747 
	C79.874535,52.910664 80.942665,52.872715 82.436256,52.894157 
	C84.577377,52.919174 86.293045,52.884800 88.460686,52.909912 
	C92.222679,52.969398 95.532684,52.969398 99.447762,52.969398 
	C95.777245,45.752174 92.624794,39.553604 89.365448,33.074776 
	C87.451691,29.534634 85.644844,26.274744 83.790802,22.689617 
	C82.868935,20.894972 81.994255,19.425564 81.048965,17.599518 
	C78.966225,14.395906 76.954109,11.548937 74.400139,7.935297 
	C74.400139,14.647620 74.454483,20.233799 74.338593,25.816442 
	C74.322166,26.607779 73.477486,27.381922 72.590729,28.103399 
	C70.449341,28.083422 68.733383,28.124067 66.693199,28.100254 
	C65.930573,27.990505 65.492180,27.945211 65.034935,27.471104 
	C64.627647,24.380770 64.239212,21.719250 63.399277,19.042439 
	C59.292637,19.073055 55.637508,19.118967 51.568092,19.114414 
	C49.764874,19.096195 48.375942,19.128443 46.692326,19.008217 
	C45.577213,18.629198 44.756783,18.402649 43.497856,18.123131 
	C40.700710,18.102942 38.342068,18.135717 35.557293,18.115089 
	C33.415878,18.095400 31.700592,18.129112 29.556953,18.106798 
	C27.402939,18.088665 25.677273,18.126562 23.647293,18.115719 
	C22.863272,18.332199 22.383562,18.597418 21.919016,18.810680 
	C21.934179,18.758726 21.834625,18.716225 21.553215,18.463539 
	C19.165453,18.763386 17.059101,19.315916 14.661921,19.876789 
	C11.570533,24.912470 8.872215,30.000956 5.919724,34.937424 
	C4.717898,36.946831 4.858681,40.496834 1.000000,40.000000 
M15.557693,46.806938 
	C25.703777,46.817524 35.849865,46.828110 46.707291,46.977081 
	C47.582989,46.722141 48.458683,46.467201 49.334381,46.212257 
	C49.254395,45.990875 49.174412,45.769493 49.094425,45.548111 
	C33.805717,45.548111 18.517012,45.548111 3.228306,45.548111 
	C3.245277,46.086739 3.262248,46.625366 3.279219,47.163998 
	C7.184820,46.833336 11.090421,46.502674 15.557693,46.806938 
M93.073227,54.999973 
	C94.291924,54.999973 95.510612,54.999973 96.729309,54.999973 
	C87.086960,54.004623 77.487968,53.999504 67.889023,54.016308 
	C67.259041,54.017410 66.629356,54.186153 65.999527,54.276920 
	C66.005348,54.517948 66.011162,54.758972 66.016975,55.000000 
	C74.734818,55.000000 83.452667,55.000000 93.073227,54.999973 
M84.510498,56.000000 
	C80.724342,56.000000 76.938187,56.000000 73.152031,56.000000 
	C73.165016,56.223278 73.177994,56.446560 73.190971,56.669838 
	C81.085617,56.669838 88.980263,56.669838 96.874916,56.669838 
	C96.874748,56.446560 96.874580,56.223278 96.874413,56.000000 
	C93.080910,56.000000 89.287415,56.000000 84.510498,56.000000 
z"/>
<path fill="#000000" opacity="1.000000" stroke="none" 
	d="
M101.000000,60.000000 
	C101.000000,73.635292 101.000000,87.270584 101.000000,100.905876 
	C100.865089,100.937256 100.730186,100.996101 100.595276,100.996124 
	C67.504753,101.000114 34.414230,101.000000 1.000000,101.000000 
	C1.000000,84.647194 1.000000,68.292259 1.367646,51.493401 
	C4.456383,56.047035 7.177473,61.044582 9.969027,66.407776 
	C12.077028,69.848511 14.114567,72.923592 16.217068,76.365021 
	C18.240860,80.151894 20.199688,83.572433 22.194370,87.327026 
	C23.663519,89.616959 25.096809,91.572823 26.530100,93.528694 
	C26.875263,93.227242 27.220425,92.925797 27.565588,92.624352 
	C27.318949,91.413086 27.072311,90.201828 26.890285,88.531914 
	C26.913275,84.051117 26.871649,80.028961 26.919659,75.627258 
	C28.336569,74.775803 29.663839,74.303909 31.414745,73.900009 
	C33.554115,73.989189 35.269848,74.010376 36.998672,74.467468 
	C37.353302,77.574387 37.694847,80.245392 38.500160,82.947144 
	C43.980556,82.930389 48.997185,82.882896 54.467953,82.895073 
	C58.283955,82.914040 61.645817,82.873337 65.342224,82.891396 
	C66.124519,82.900978 66.572266,82.851814 67.474258,82.874672 
	C72.619217,83.233124 77.309929,83.519547 82.402435,83.897415 
	C85.726036,84.583252 86.215630,82.610130 87.773170,80.610062 
	C91.323288,76.051285 94.785347,71.810616 96.216652,65.972687 
	C96.767494,63.725925 99.345581,61.976192 101.000000,60.000000 
z"/>
<path fill="#E13C34" opacity="1.000000" stroke="none" 
	d="
M101.000000,59.666668 
	C99.345581,61.976192 96.767494,63.725925 96.216652,65.972687 
	C94.785347,71.810616 91.323288,76.051285 87.773170,80.610062 
	C86.215630,82.610130 85.726036,84.583252 82.402481,83.441193 
	C81.997940,76.841789 81.949654,70.789558 82.012329,64.738487 
	C82.041725,61.901077 81.367729,59.845375 77.551361,60.011078 
	C75.413109,60.009129 73.701431,60.010048 71.601715,60.008461 
	C69.486755,59.404247 67.759850,58.802540 66.032944,58.200829 
	C77.376671,58.115314 88.720398,58.029804 100.532059,57.972145 
	C101.000000,58.444447 101.000000,58.888889 101.000000,59.666668 
z"/>
<path fill="#35AE46" opacity="1.000000" stroke="none" 
	d="
M13.020435,43.860744 
	C9.313544,43.829967 5.606653,43.799187 1.449881,43.884201 
	C1.000000,42.933331 1.000000,41.866661 1.000000,40.399994 
	C4.858681,40.496834 4.717898,36.946831 5.919724,34.937424 
	C8.872215,30.000956 11.570533,24.912470 14.662418,20.282549 
	C14.946400,23.309294 15.139907,25.957952 14.889060,28.563839 
	C14.397012,33.675400 13.657525,38.763145 13.020435,43.860744 
z"/>
<path fill="#EA3F36" opacity="1.000000" stroke="none" 
	d="
M9.898563,66.042130 
	C7.177473,61.044582 4.456383,56.047035 1.367646,51.024742 
	C1.000000,50.250000 1.000000,49.500000 1.000000,48.375000 
	C6.020105,48.013584 11.040210,48.027164 16.354706,48.405258 
	C13.782190,50.383488 12.660621,52.741528 12.947452,56.086098 
	C13.228658,59.365082 13.012822,62.686691 13.007738,65.994942 
	C13.000344,66.000290 12.989749,66.015129 12.603361,65.989578 
	C11.444170,65.990059 10.671367,66.016098 9.898563,66.042130 
z"/>
<path fill="#C2212E" opacity="1.000000" stroke="none" 
	d="
M54.013817,82.835403 
	C48.997185,82.882896 43.980556,82.930389 38.538029,82.609543 
	C41.140114,79.489525 44.168095,76.737862 47.858395,73.384323 
	C44.890972,73.194870 42.941528,73.070419 40.994034,72.480713 
	C40.983913,64.303215 40.971848,56.590973 40.959778,48.878731 
	C43.730915,48.493912 46.502056,48.109089 49.903442,47.636745 
	C49.903442,51.418022 49.903442,54.439384 49.903442,57.652111 
	C52.493168,57.895248 54.556698,58.088985 56.708698,58.665054 
	C56.862961,59.367821 56.928753,59.688251 56.995354,60.476700 
	C56.997005,65.087410 57.377041,69.276489 56.877934,73.358047 
	C56.483253,76.585655 55.008774,79.681213 54.013817,82.835403 
z"/>
<path fill="#DE3533" opacity="1.000000" stroke="none" 
	d="
M22.158516,86.992966 
	C20.199688,83.572433 18.240860,80.151894 16.524405,76.312622 
	C17.183609,74.484207 17.890814,73.090416 17.968998,71.662201 
	C18.397730,63.830406 18.672274,55.990173 18.999773,48.152840 
	C20.389072,48.113426 21.778370,48.074009 23.583454,48.557552 
	C24.001385,56.176548 23.807499,63.281654 24.134975,70.362640 
	C24.223717,72.281471 25.888577,74.127419 26.830023,76.006813 
	C26.871649,80.028961 26.913275,84.051117 26.592808,88.415237 
	C24.873314,88.169128 23.515915,87.581047 22.158516,86.992966 
z"/>
<path fill="#209443" opacity="1.000000" stroke="none" 
	d="
M78.010895,52.834881 
	C76.622055,52.871861 75.233208,52.908840 73.469688,52.483688 
	C73.068726,44.069050 73.042442,36.116535 73.016159,28.164024 
	C73.477486,27.381922 74.322166,26.607779 74.338593,25.816442 
	C74.454483,20.233799 74.400139,14.647620 74.400139,7.935297 
	C76.954109,11.548937 78.966225,14.395906 80.705635,17.790476 
	C79.955460,20.326567 79.151970,22.299477 79.056068,24.306202 
	C78.601814,33.810703 78.340775,43.324436 78.010895,52.834881 
z"/>
<path fill="#CD2930" opacity="1.000000" stroke="none" 
	d="
M54.467949,82.895081 
	C55.008774,79.681213 56.483253,76.585655 56.877934,73.358047 
	C57.377041,69.276489 56.997005,65.087410 57.169220,60.346786 
	C57.567467,59.566544 57.776787,59.367531 57.970242,59.151825 
	C59.675240,59.082497 61.380238,59.013165 63.667591,59.301933 
	C64.502525,67.384232 64.755104,75.108437 65.007683,82.832642 
	C61.645817,82.873337 58.283955,82.914040 54.467949,82.895081 
z"/>
<path fill="#13823E" opacity="1.000000" stroke="none" 
	d="
M35.983421,18.168495 
	C38.342068,18.135717 40.700710,18.102942 43.295639,18.434301 
	C43.347618,27.146025 43.163315,35.493614 42.979012,43.841202 
	C41.570339,43.874390 40.161663,43.907578 38.093166,43.626602 
	C36.853848,41.805267 35.796864,40.304424 35.776802,38.789845 
	C35.685802,31.918179 35.887234,25.042639 35.983421,18.168495 
z"/>
<path fill="#1C8E41" opacity="1.000000" stroke="none" 
	d="
M35.557293,18.115091 
	C35.887234,25.042639 35.685802,31.918179 35.776802,38.789845 
	C35.796864,40.304424 36.853848,41.805267 37.673363,43.571678 
	C35.235889,43.874111 32.558399,43.917305 29.514641,43.546665 
	C29.427353,34.809498 29.706329,26.486160 29.985306,18.162827 
	C31.700592,18.129112 33.415878,18.095400 35.557293,18.115091 
z"/>
<path fill="#D83132" opacity="1.000000" stroke="none" 
	d="
M26.919661,75.627258 
	C25.888577,74.127419 24.223717,72.281471 24.134975,70.362640 
	C23.807499,63.281654 24.001385,56.176548 23.996252,48.622414 
	C25.853148,48.185928 27.713032,48.207542 29.803970,49.022602 
	C30.353722,57.821373 30.672415,65.826698 30.991110,73.832016 
	C29.663839,74.303909 28.336569,74.775803 26.919661,75.627258 
z"/>
<path fill="#D62F31" opacity="1.000000" stroke="none" 
	d="
M65.342224,82.891388 
	C64.755104,75.108437 64.502525,67.384232 64.092842,59.264519 
	C64.434105,58.600815 64.932465,58.332626 65.731888,58.132629 
	C67.759850,58.802540 69.486755,59.404247 71.604630,60.475750 
	C71.994843,67.627464 71.994087,74.309387 71.624748,80.994766 
	C69.844116,81.599693 68.432068,82.201164 67.020012,82.802643 
	C66.572266,82.851814 66.124519,82.900978 65.342224,82.891388 
z"/>
<path fill="#016A38" opacity="1.000000" stroke="none" 
	d="
M54.008350,52.838715 
	C53.015301,51.967739 51.483204,51.261272 51.155437,50.187267 
	C50.662796,48.573017 51.013687,46.701336 50.996735,44.026039 
	C51.319157,35.130272 51.650768,27.147575 51.982376,19.164879 
	C55.637508,19.118967 59.292637,19.073055 63.267662,19.339363 
	C60.389599,22.502644 57.191639,25.353708 54.039341,28.608288 
	C54.059452,36.954109 54.033901,44.896412 54.008350,52.838715 
z"/>
<path fill="#188940" opacity="1.000000" stroke="none" 
	d="
M72.590729,28.103401 
	C73.042442,36.116535 73.068726,44.069050 73.055557,52.429375 
	C71.300789,52.871651 69.585480,52.906109 67.483383,52.480614 
	C67.070206,44.068672 67.043816,36.116692 67.017433,28.164711 
	C68.733383,28.124067 70.449341,28.083422 72.590729,28.103401 
z"/>
<path fill="#2CA345" opacity="1.000000" stroke="none" 
	d="
M83.837997,23.014858 
	C85.644844,26.274744 87.451691,29.534634 89.162628,33.426666 
	C88.714043,40.322685 88.361374,46.586555 88.008705,52.850426 
	C86.293045,52.884800 84.577377,52.919174 82.477310,52.486374 
	C82.323929,43.786308 82.510468,35.551704 82.827820,27.322145 
	C82.883598,25.875549 83.487320,24.450083 83.837997,23.014858 
z"/>
<path fill="#117F3D" opacity="1.000000" stroke="none" 
	d="
M66.693199,28.100254 
	C67.043816,36.116692 67.070206,44.068672 67.057236,52.428162 
	C65.626846,52.870716 64.235809,52.905762 62.426315,52.432243 
	C62.011826,44.001904 62.015797,36.080135 62.398224,28.116123 
	C63.535713,28.015898 64.294754,27.957911 65.053787,27.899921 
	C65.492180,27.945211 65.930573,27.990505 66.693199,28.100254 
z"/>
<path fill="#CA272F" opacity="1.000000" stroke="none" 
	d="
M40.535629,48.927895 
	C40.971848,56.590973 40.983913,64.303215 40.613716,72.514908 
	C39.217926,73.031990 38.204407,73.049629 36.917938,72.783951 
	C36.097687,70.318237 35.167789,68.151436 35.078049,65.950378 
	C34.849800,60.352036 34.997353,54.738361 34.994484,49.130829 
	C36.700150,49.079571 38.405819,49.028316 40.535629,48.927895 
z"/>
<path fill="#30A847" opacity="1.000000" stroke="none" 
	d="
M13.458534,43.922134 
	C13.657525,38.763145 14.397012,33.675400 14.889060,28.563839 
	C15.139907,25.957952 14.946400,23.309294 14.953250,20.274208 
	C17.059101,19.315916 19.165453,18.763386 21.599663,18.783321 
	C21.963694,19.568312 21.999865,19.780830 21.698738,20.185062 
	C21.229891,28.196505 21.098341,36.016228 20.966789,43.835953 
	C18.610071,43.885143 16.253351,43.934334 13.458534,43.922134 
z"/>
<path fill="#249943" opacity="1.000000" stroke="none" 
	d="
M22.036037,19.993347 
	C21.999865,19.780830 21.963694,19.568312 21.881073,19.036007 
	C21.834625,18.716225 21.934179,18.758726 22.187908,18.765150 
	C22.944962,18.569202 23.448286,18.366831 23.951609,18.164459 
	C25.677273,18.126562 27.402939,18.088665 29.556953,18.106796 
	C29.706329,26.486160 29.427353,34.809498 29.069496,43.489540 
	C27.596350,43.882591 26.202082,43.918938 24.394726,43.687714 
	C23.981640,43.420147 23.982918,43.019375 23.986654,42.549545 
	C23.992533,36.451759 24.147495,30.817253 23.906689,25.199713 
	C23.831289,23.440760 22.689631,21.727514 22.036037,19.993347 
z"/>
<path fill="#269C44" opacity="1.000000" stroke="none" 
	d="
M83.790802,22.689619 
	C83.487320,24.450083 82.883598,25.875549 82.827820,27.322145 
	C82.510468,35.551704 82.323929,43.786308 82.051849,52.426979 
	C80.942665,52.872715 79.874535,52.910664 78.408646,52.891747 
	C78.340775,43.324436 78.601814,33.810703 79.056068,24.306202 
	C79.151970,22.299477 79.955460,20.326567 80.776245,18.147118 
	C81.994255,19.425564 82.868935,20.894972 83.790802,22.689619 
z"/>
<path fill="#DD3833" opacity="1.000000" stroke="none" 
	d="
M18.665474,48.089310 
	C18.672274,55.990173 18.397730,63.830406 17.968998,71.662201 
	C17.890814,73.090416 17.183609,74.484207 16.459442,75.946281 
	C14.114567,72.923592 12.077028,69.848511 9.969027,66.407776 
	C10.671367,66.016098 11.444170,65.990059 12.631828,66.034256 
	C13.046683,66.104500 13.015131,65.989594 13.015131,65.989594 
	C13.012822,62.686691 13.228658,59.365082 12.947452,56.086098 
	C12.660621,52.741528 13.782190,50.383488 16.816803,48.468468 
	C17.433401,48.120041 17.882288,48.072910 18.665474,48.089310 
z"/>
<path fill="#D22C31" opacity="1.000000" stroke="none" 
	d="
M34.586021,49.070480 
	C34.997353,54.738361 34.849800,60.352036 35.078049,65.950378 
	C35.167789,68.151436 36.097687,70.318237 36.859413,73.023453 
	C37.073845,73.546265 36.985584,74.031570 36.985584,74.031570 
	C35.269848,74.010376 33.554115,73.989189 31.414745,73.900009 
	C30.672415,65.826698 30.353722,57.821373 30.044708,49.338551 
	C31.428778,48.910744 32.803169,48.960442 34.586021,49.070480 
z"/>
<path fill="#0C783C" opacity="1.000000" stroke="none" 
	d="
M43.377090,43.899750 
	C43.163315,35.493614 43.347618,27.146025 43.734138,18.487267 
	C44.756783,18.402649 45.577213,18.629198 46.695419,19.465485 
	C46.989845,27.992920 46.986500,35.910618 46.983154,43.828320 
	C45.913826,43.871647 44.844494,43.914974 43.377090,43.899750 
z"/>
<path fill="#33A946" opacity="1.000000" stroke="none" 
	d="
M88.460686,52.909912 
	C88.361374,46.586555 88.714043,40.322685 89.269524,33.706924 
	C92.624794,39.553604 95.777245,45.752174 99.447762,52.969398 
	C95.532684,52.969398 92.222679,52.969398 88.460686,52.909912 
z"/>
<path fill="#05703A" opacity="1.000000" stroke="none" 
	d="
M47.379883,43.884037 
	C46.986500,35.910618 46.989845,27.992920 46.990097,19.617954 
	C48.375942,19.128443 49.764874,19.096195 51.568092,19.114414 
	C51.650768,27.147575 51.319157,35.130272 50.982517,43.585747 
	C49.910530,44.018932 48.843571,43.979343 47.379883,43.884037 
z"/>
<path fill="#0A763B" opacity="1.000000" stroke="none" 
	d="
M62.019768,28.158363 
	C62.015797,36.080135 62.011826,44.001904 62.011253,52.381081 
	C60.625996,52.871090 59.237335,52.903698 57.525894,52.490101 
	C57.475849,44.111038 57.748585,36.178177 58.418472,28.186724 
	C59.883671,28.138206 60.951721,28.148285 62.019768,28.158363 
z"/>
<path fill="#2BA246" opacity="1.000000" stroke="none" 
	d="
M21.698740,20.185062 
	C22.689631,21.727514 23.831289,23.440760 23.906689,25.199713 
	C24.147495,30.817253 23.992533,36.451759 23.818790,42.668541 
	C23.429241,43.426147 23.225262,43.610386 23.035252,43.810093 
	C22.575098,43.852982 22.114944,43.895870 21.310791,43.887360 
	C21.098341,36.016228 21.229891,28.196505 21.698740,20.185062 
z"/>
<path fill="#056F3A" opacity="1.000000" stroke="none" 
	d="
M58.021320,28.245319 
	C57.748585,36.178177 57.475849,44.111038 57.111553,52.439438 
	C56.266186,52.868046 55.512379,52.901112 54.383461,52.886444 
	C54.033901,44.896412 54.059452,36.954109 54.442280,28.572456 
	C55.873482,28.170509 56.947399,28.207914 58.021320,28.245319 
z"/>
<path fill="#00FB00" opacity="1.000000" stroke="none" 
	d="
M14.996022,46.172016 
	C11.090421,46.502674 7.184820,46.833336 3.279219,47.163998 
	C3.262248,46.625366 3.245277,46.086739 3.228306,45.548111 
	C18.517012,45.548111 33.805717,45.548111 49.094425,45.548111 
	C49.174412,45.769493 49.254395,45.990875 49.334381,46.212257 
	C48.458683,46.467201 47.582989,46.722141 46.100609,46.560982 
	C35.327957,46.153931 25.161991,46.162975 14.996022,46.172016 
z"/>
<path fill="#012E18" opacity="1.000000" stroke="none" 
	d="
M58.418472,28.186724 
	C56.947399,28.207914 55.873482,28.170509 54.396622,28.168938 
	C57.191639,25.353708 60.389599,22.502644 63.719170,19.354656 
	C64.239212,21.719250 64.627647,24.380770 65.034935,27.471104 
	C64.294754,27.957911 63.535713,28.015898 62.398224,28.116125 
	C60.951721,28.148285 59.883671,28.138206 58.418472,28.186724 
z"/>
<path fill="#00FF00" opacity="1.000000" stroke="none" 
	d="
M92.621872,54.999985 
	C83.452667,55.000000 74.734818,55.000000 66.016975,55.000000 
	C66.011162,54.758972 66.005348,54.517948 65.999527,54.276920 
	C66.629356,54.186153 67.259041,54.017410 67.889023,54.016308 
	C77.487968,53.999504 87.086960,54.004623 96.729309,54.999973 
	C95.510612,54.999973 94.291924,54.999973 92.621872,54.999985 
z"/>
<path fill="#BF4040" opacity="1.000000" stroke="none" 
	d="
M15.276857,46.489479 
	C25.161991,46.162975 35.327957,46.153931 45.744938,46.491791 
	C35.849865,46.828110 25.703777,46.817524 15.276857,46.489479 
z"/>
<path fill="#FF4040" opacity="1.000000" stroke="none" 
	d="
M85.002205,56.000000 
	C89.287415,56.000000 93.080910,56.000000 96.874413,56.000000 
	C96.874580,56.223278 96.874748,56.446560 96.874916,56.669838 
	C88.980263,56.669838 81.085617,56.669838 73.190971,56.669838 
	C73.177994,56.446560 73.165016,56.223278 73.152031,56.000000 
	C76.938187,56.000000 80.724342,56.000000 85.002205,56.000000 
z"/>
<path fill="#D62F31" opacity="1.000000" stroke="none" 
	d="
M57.763329,59.086029 
	C57.776787,59.367531 57.567467,59.566544 57.168411,59.878777 
	C56.928753,59.688251 56.862961,59.367821 56.962959,58.996185 
	C57.128746,58.944981 57.556416,59.020233 57.763329,59.086029 
z"/>
<path fill="#2BA246" opacity="1.000000" stroke="none" 
	d="
M23.647293,18.115719 
	C23.448286,18.366831 22.944962,18.569202 22.172745,18.817104 
	C22.383562,18.597418 22.863272,18.332199 23.647293,18.115719 
z"/>
<path fill="#30A847" opacity="1.000000" stroke="none" 
	d="
M23.271040,43.852798 
	C23.225262,43.610386 23.429241,43.426147 23.815054,43.138374 
	C23.982918,43.019375 23.981640,43.420147 23.980938,43.620533 
	C23.980236,43.820919 23.506828,43.895504 23.271040,43.852798 
z"/>
<path fill="#E43834" opacity="1.000000" stroke="none" 
	d="
M67.474258,82.874672 
	C68.432068,82.201164 69.844116,81.599693 72.037781,80.993301 
	C76.785423,81.274406 78.108109,79.188553 78.020271,75.503197 
	C77.897278,70.342712 77.982048,65.177269 77.977936,60.013950 
	C81.367729,59.845375 82.041725,61.901077 82.012329,64.738487 
	C81.949654,70.789558 81.997940,76.841789 82.000702,83.349754 
	C77.309929,83.519547 72.619217,83.233124 67.474258,82.874672 
z"/>
<path fill="#7E0A18" opacity="1.000000" stroke="none" 
	d="
M36.998672,74.467468 
	C36.985584,74.031570 37.073845,73.546265 37.132366,73.306770 
	C38.204407,73.049629 39.217926,73.031990 40.611763,72.980156 
	C42.941528,73.070419 44.890972,73.194870 47.858395,73.384323 
	C44.168095,76.737862 41.140114,79.489525 38.074265,82.578796 
	C37.694847,80.245392 37.353302,77.574387 36.998672,74.467468 
z"/>
<path fill="#D83132" opacity="1.000000" stroke="none" 
	d="
M22.194370,87.327026 
	C23.515915,87.581047 24.873314,88.169128 26.528193,88.873886 
	C27.072311,90.201828 27.318949,91.413086 27.565588,92.624352 
	C27.220425,92.925797 26.875263,93.227242 26.530100,93.528694 
	C25.096809,91.572823 23.663519,89.616959 22.194370,87.327026 
z"/>
<path fill="#DD3433" opacity="1.000000" stroke="none" 
	d="
M77.551361,60.011078 
	C77.982048,65.177269 77.897278,70.342712 78.020271,75.503197 
	C78.108109,79.188553 76.785423,81.274406 72.406357,80.989838 
	C71.994087,74.309387 71.994843,67.627464 71.992683,60.478256 
	C73.701431,60.010048 75.413109,60.009129 77.551361,60.011078 
z"/>
<path fill="#EA3F36" opacity="1.000000" stroke="none" 
	d="
M13.007738,65.994942 
	C13.015131,65.989594 13.046683,66.104500 13.018216,66.059814 
	C12.989749,66.015129 13.000344,66.000290 13.007738,65.994942 
z"/>
</svg>