<svg version="1.1" id="Layer_1" xmlns="http://www.w3.org/2000/svg" xmlns:xlink="http://www.w3.org/1999/xlink" x="0px" y="0px"
	 width="100%" viewBox="0 0 834 366" enable-background="new 0 0 834 366" xml:space="preserve">
<path fill="#FFFFFE" opacity="1.000000" stroke="none" 
	d="
M611.000000,367.000000 
	C407.333344,367.000000 204.166672,367.000000 1.000000,367.000000 
	C1.000000,245.000000 1.000000,123.000000 1.000000,1.000000 
	C279.000000,1.000000 557.000000,1.000000 835.000000,1.000000 
	C835.000000,123.000000 835.000000,245.000000 835.000000,367.000000 
	C760.500000,367.000000 686.000000,367.000000 611.000000,367.000000 
M304.508698,306.690369 
	C305.340210,306.677551 306.171753,306.664734 307.713135,306.818268 
	C322.854401,307.015381 337.995209,307.264862 353.137024,307.397827 
	C378.424011,307.619934 403.711670,307.767517 429.920044,308.136292 
	C442.280182,308.295624 454.640289,308.454956 467.918884,308.806793 
	C479.945557,308.841034 491.972198,308.875305 504.914429,309.127808 
	C514.950256,309.141022 524.986023,309.154205 535.905640,309.465942 
	C546.936340,309.582703 557.967041,309.699463 569.922729,309.978668 
	C580.948303,309.966888 591.973938,309.955109 603.911560,310.126587 
	C616.936584,310.289093 629.961609,310.451599 643.907837,310.806519 
	C655.938232,310.852539 667.968567,310.898560 680.902527,311.124451 
	C684.743774,310.737061 689.789673,311.768707 692.213257,309.711334 
	C701.619385,301.726685 710.191650,292.759827 719.699158,283.896027 
	C744.935791,260.512177 770.172424,237.128326 796.033813,213.165634 
	C770.899780,213.165634 746.948425,213.165634 722.069519,213.026459 
	C708.045227,213.073029 694.020935,213.119598 679.069092,213.026398 
	C666.711304,213.073410 654.353455,213.120422 641.068176,213.028503 
	C628.711426,213.074600 616.354736,213.120697 603.070312,213.025696 
	C591.379456,213.072388 579.688660,213.119095 567.070068,213.025436 
	C556.379333,213.072525 545.688660,213.119614 534.070374,213.024719 
	C524.379333,213.071884 514.688232,213.119049 504.069977,213.023224 
	C491.379028,213.070084 478.688110,213.116928 465.069611,213.022415 
	C453.045197,213.070969 441.020782,213.119522 428.069244,213.025253 
	C419.304993,213.025253 410.540741,213.025253 401.311981,213.025253 
	C401.311981,199.655121 401.311981,186.918488 401.311981,174.055099 
	C388.891510,174.055099 376.946472,174.055099 364.080292,173.866150 
	C352.720428,173.928528 341.360596,173.990921 329.079529,173.864990 
	C318.053467,173.927505 307.027405,173.990021 295.079865,173.865204 
	C283.720276,173.928436 272.360718,173.991684 260.079559,173.868393 
	C243.387192,173.930283 226.694839,173.992172 209.080475,173.868988 
	C197.720596,173.929581 186.360718,173.990158 174.078888,173.865753 
	C164.719696,173.927231 155.360504,173.988708 145.079224,173.866287 
	C132.719879,173.927673 120.360527,173.989044 107.078766,173.868042 
	C81.390526,173.868042 55.702282,173.868042 28.876585,173.868042 
	C35.527164,180.007507 41.229904,185.298996 46.961967,190.558563 
	C66.320465,208.321365 85.689384,226.072830 105.385056,244.415054 
	C106.001770,244.964737 106.624184,245.508163 107.234360,246.065002 
	C120.048264,257.758179 132.860794,269.452881 145.982376,281.759918 
	C154.954285,289.910095 163.926208,298.060303 173.190704,306.800690 
	C187.459854,319.869507 201.729004,332.938293 216.208679,346.567352 
	C217.273376,347.449371 218.338058,348.331360 219.762802,349.757355 
	C220.097260,349.504364 220.431717,349.251343 220.844147,348.119019 
	C219.246323,322.877747 217.648499,297.636475 216.022278,271.946655 
	C232.129272,271.946655 247.065125,271.946655 262.923401,272.126709 
	C273.949158,272.067657 284.974945,272.008606 296.871490,272.131104 
	C299.241394,272.130127 301.611267,272.129150 304.094482,273.034973 
	C304.194244,284.048218 304.294006,295.061462 304.508698,306.690369 
M587.865356,190.464676 
	C595.582275,190.367432 603.299255,190.270203 611.757446,190.466904 
	C619.173157,190.365952 626.588928,190.264999 634.736389,190.441223 
	C647.160461,190.349670 659.584595,190.258133 672.903992,190.410828 
	C685.271912,190.328110 697.639893,190.245392 710.900146,190.397629 
	C724.920898,190.333817 738.941589,190.270020 753.704346,190.543259 
	C767.426453,190.543259 781.148560,190.543259 794.870605,190.543259 
	C795.012390,190.170258 795.154175,189.797272 795.295959,189.424271 
	C781.802979,177.176102 768.309998,164.927933 754.419434,152.096970 
	C739.942444,138.818253 725.465393,125.539520 710.535400,111.745705 
	C697.740540,100.024750 684.945618,88.303802 671.835815,76.021080 
	C660.893433,66.012741 649.951050,56.004398 638.751099,45.376957 
	C627.419128,34.969425 616.087219,24.561892 603.849915,13.322885 
	C604.804932,29.278160 605.745239,43.979473 606.545593,58.688408 
	C607.149902,69.795769 607.575012,80.912880 607.132690,92.005089 
	C601.087769,92.058693 595.042908,92.112305 588.071045,92.022064 
	C581.379333,92.069931 574.687561,92.117798 567.068909,92.022552 
	C559.044495,92.070251 551.020142,92.117950 542.068970,92.021843 
	C534.907349,91.985283 527.745789,91.948730 520.505615,91.083755 
	C520.311951,80.044533 520.118286,69.005310 519.358521,57.368134 
	C504.210510,57.208355 489.062622,57.035339 473.914459,56.892113 
	C454.613220,56.709621 435.311768,56.551220 415.090027,56.185810 
	C406.727905,56.180050 398.365753,56.174294 389.076904,56.009327 
	C381.383850,55.975838 373.690765,55.942348 365.193817,55.589016 
	C358.499207,55.615837 351.804626,55.642658 344.398682,55.222797 
	C335.267181,55.203472 326.135712,55.184147 316.076965,55.014549 
	C307.051758,55.028713 298.026520,55.042877 288.109650,54.864422 
	C280.405121,54.855003 272.700623,54.845585 264.181915,54.583496 
	C255.459824,54.516968 246.737732,54.450439 237.110413,54.112438 
	C227.740585,54.094177 218.370758,54.075916 208.082336,53.872135 
	C200.053436,53.861191 192.024521,53.850246 183.179642,53.597202 
	C173.125534,53.524601 163.071411,53.452003 152.096695,53.176613 
	C148.496262,53.117283 144.838333,53.442806 141.307831,52.915379 
	C134.747147,51.935261 130.438690,54.825794 126.541916,60.324970 
	C119.679359,66.837097 112.816803,73.349220 105.324791,80.114304 
	C104.598328,80.800079 103.875923,81.490219 103.144798,82.170998 
	C78.771446,104.865799 54.397259,127.559708 29.693052,150.280533 
	C29.693052,150.280533 29.589207,150.664993 29.589207,150.664993 
	C29.589207,150.664993 30.021828,150.766541 30.906605,151.090439 
	C55.938286,151.042343 80.969971,150.994232 106.925278,151.118210 
	C114.950508,151.060181 122.975746,151.002151 131.923843,151.120193 
	C138.616669,151.062546 145.309479,151.004883 152.925125,151.123611 
	C163.283951,151.063080 173.642792,151.002548 184.924133,151.120834 
	C193.282990,151.061798 201.641830,151.002747 210.922806,151.125168 
	C219.615814,151.065491 228.308807,151.005814 237.924240,151.124802 
	C246.949951,151.064774 255.975662,151.004761 265.923126,151.127899 
	C273.949188,151.067001 281.975281,151.006088 290.922821,151.129761 
	C299.615875,151.068817 308.308899,151.007858 317.923248,151.131958 
	C327.282654,151.070007 336.642059,151.008041 346.922546,151.131912 
	C353.948700,151.069153 360.974884,151.006393 368.921783,151.130600 
	C375.614929,151.067093 382.308075,151.003586 389.921936,151.128601 
	C398.614868,151.066742 407.307800,151.004898 416.891846,151.133545 
	C418.985474,151.133545 421.079102,151.133545 423.651672,151.133545 
	C423.651672,164.599121 423.651672,177.341461 423.651672,190.164597 
	C430.079041,190.164597 436.019104,190.164597 442.669739,190.462189 
	C450.118073,190.365891 457.566376,190.269592 465.902283,190.467453 
	C473.589935,190.367859 481.277618,190.268280 489.862854,190.462631 
	C497.246338,190.364136 504.629822,190.265625 512.779358,190.460098 
	C522.507385,190.365173 532.235413,190.270233 542.858643,190.472366 
	C551.242004,190.370926 559.625305,190.269485 568.845947,190.421661 
	C574.886475,190.338608 580.927002,190.255554 587.865356,190.464676 
z"/>
<path fill="#C01F2E" opacity="1.000000" stroke="none" 
	d="
M428.999023,307.946472 
	C403.711670,307.767517 378.424011,307.619934 353.137024,307.397827 
	C337.995209,307.264862 322.854401,307.015381 307.343018,306.528076 
	C306.972900,306.237915 306.901062,305.829102 307.168640,305.589935 
	C337.643555,294.489563 367.850922,283.628357 398.058289,272.767151 
	C397.994141,272.503143 397.929993,272.239136 397.865814,271.975128 
	C386.576172,271.975128 375.286499,271.975128 364.048370,271.575256 
	C364.733246,266.953400 365.886444,262.734924 365.914764,258.508881 
	C366.085968,232.964432 366.028717,207.418182 365.956329,181.872772 
	C365.948944,179.266006 365.334320,176.660950 365.001465,174.055099 
	C376.946472,174.055099 388.891510,174.055099 401.311981,174.055099 
	C401.311981,186.918488 401.311981,199.655121 401.311981,213.025253 
	C410.540741,213.025253 419.304993,213.025253 428.546082,213.508820 
	C429.348083,215.773941 429.970367,217.558197 429.954071,219.336594 
	C429.683136,248.873657 429.332153,278.409973 428.999023,307.946472 
M401.043182,227.515762 
	C401.043182,241.888977 401.043182,256.262207 401.043182,270.635406 
	C401.259491,270.631561 401.475769,270.627686 401.692078,270.623840 
	C401.692078,252.131332 401.692078,233.638809 401.692078,215.146301 
	C401.475830,215.143188 401.259552,215.140076 401.043304,215.136963 
	C401.043304,218.932785 401.043304,222.728592 401.043182,227.515762 
z"/>
<path fill="#DC3332" opacity="1.000000" stroke="none" 
	d="
M175.000824,174.050751 
	C186.360718,173.990158 197.720596,173.929581 209.540558,174.426529 
	C210.000427,226.810318 209.970123,278.636627 210.094955,330.462585 
	C210.100784,332.880951 210.755981,336.314240 212.393204,337.497253 
	C215.644043,339.846161 216.330765,342.523163 215.998138,346.007111 
	C201.729004,332.938293 187.459854,319.869507 173.208282,306.162445 
	C175.263275,303.087158 176.279083,300.202637 173.390900,298.130920 
	C170.109451,295.777161 169.972229,292.806458 169.976151,289.391327 
	C170.015366,255.142105 169.988052,220.892822 170.016281,186.643585 
	C170.019531,182.705032 168.741974,178.207336 174.083923,176.242340 
	C174.589828,176.056259 174.704514,174.806610 175.000824,174.050751 
z"/>
<path fill="#D52E31" opacity="1.000000" stroke="none" 
	d="
M216.103409,346.287231 
	C216.330765,342.523163 215.644043,339.846161 212.393204,337.497253 
	C210.755981,336.314240 210.100784,332.880951 210.094955,330.462585 
	C209.970123,278.636627 210.000427,226.810318 210.001556,174.519073 
	C226.694839,173.992172 243.387192,173.930283 260.529358,174.381058 
	C260.652771,177.843704 260.053253,180.792770 260.043304,183.743820 
	C259.965149,206.878586 260.085724,230.014343 259.929626,253.148331 
	C259.897339,257.935272 258.965820,262.716156 258.390808,268.035614 
	C259.086548,268.789337 260.543762,270.367981 262.000977,271.946655 
	C247.065125,271.946655 232.129272,271.946655 216.022278,271.946655 
	C217.648499,297.636475 219.246323,322.877747 220.462677,348.602142 
	C219.855072,349.127960 219.628906,349.170685 219.402756,349.213379 
	C218.338058,348.331360 217.273376,347.449371 216.103409,346.287231 
z"/>
<path fill="#259A44" opacity="1.000000" stroke="none" 
	d="
M639.008667,45.996063 
	C649.951050,56.004398 660.893433,66.012741 671.952637,76.755615 
	C672.641846,84.062416 673.762939,90.642502 673.669250,97.205269 
	C673.489685,109.791786 672.311707,122.363533 672.110596,134.950394 
	C671.816650,153.351639 672.018311,171.760803 672.008667,190.166580 
	C659.584595,190.258133 647.160461,190.349670 634.374756,189.891983 
	C634.675415,184.674179 635.859863,180.012070 635.917664,175.336029 
	C636.396423,136.597672 636.666870,97.856720 637.000061,59.116554 
	C637.002930,58.783669 636.957153,58.443420 637.009949,58.118973 
	C637.667969,54.076668 638.340149,50.036663 639.008667,45.996063 
z"/>
<path fill="#209443" opacity="1.000000" stroke="none" 
	d="
M638.879883,45.686512 
	C638.340149,50.036663 637.667969,54.076668 637.009949,58.118973 
	C636.957153,58.443420 637.002930,58.783669 637.000061,59.116554 
	C636.666870,97.856720 636.396423,136.597672 635.917664,175.336029 
	C635.859863,180.012070 634.675415,184.674179 634.008911,189.753387 
	C626.588928,190.264999 619.173157,190.365952 611.380249,189.972733 
	C610.080078,184.409607 607.028381,180.365173 607.599121,174.280762 
	C609.111633,158.157532 608.550659,141.846924 609.070435,125.619064 
	C609.226685,120.740044 610.355896,115.899147 610.768494,111.017876 
	C610.929138,109.117317 610.186096,107.158043 610.130676,105.217628 
	C610.035889,101.901894 609.572388,98.431068 610.366089,95.305275 
	C611.065796,92.549461 610.484985,91.993881 608.079834,92.025658 
	C607.575012,80.912880 607.149902,69.795769 606.545593,58.688408 
	C605.745239,43.979473 604.804932,29.278160 603.849915,13.322885 
	C616.087219,24.561892 627.419128,34.969425 638.879883,45.686512 
z"/>
<path fill="#016938" opacity="1.000000" stroke="none" 
	d="
M441.959198,190.164597 
	C436.019104,190.164597 430.079041,190.164597 423.651672,190.164597 
	C423.651672,177.341461 423.651672,164.599121 423.651672,151.133545 
	C421.079102,151.133545 418.985474,151.133545 416.393921,150.640701 
	C415.264008,145.914841 414.010132,141.667221 414.109039,137.451355 
	C414.509064,120.401550 415.456970,103.365242 415.938599,86.316490 
	C416.220245,76.345757 416.003143,66.360924 416.010406,56.382439 
	C435.311768,56.551220 454.613220,56.709621 473.914459,56.892113 
	C489.062622,57.035339 504.210510,57.208355 519.319458,57.835606 
	C488.801453,69.254570 458.322571,80.206062 427.843689,91.157562 
	C427.926788,91.463814 428.009857,91.770073 428.092926,92.076324 
	C433.397400,92.076324 438.701904,92.076324 444.060913,92.482948 
	C444.398834,97.626488 447.937195,102.910065 441.696442,106.580200 
	C441.123230,106.917320 441.061737,108.385292 441.026367,109.337929 
	C440.296326,129.014893 442.382233,148.739182 439.198395,168.406693 
	C438.034607,175.595413 438.176300,183.281036 441.959198,190.164597 
M423.161774,117.500008 
	C423.161774,127.954216 423.161774,138.408432 423.161774,148.862640 
	C423.328156,148.861649 423.494537,148.860657 423.660919,148.859665 
	C423.660919,130.626740 423.660919,112.393799 423.660919,94.160866 
	C423.494659,94.159630 423.328430,94.158394 423.162170,94.157158 
	C423.162170,101.604782 423.162170,109.052406 423.161774,117.500008 
z"/>
<path fill="#DF3533" opacity="1.000000" stroke="none" 
	d="
M603.997986,213.166779 
	C616.354736,213.120697 628.711426,213.074600 641.533386,213.555603 
	C642.327942,246.259842 642.657288,278.436981 642.986633,310.614136 
	C629.961609,310.451599 616.936584,310.289093 603.502930,309.651794 
	C603.062927,305.935486 603.005066,302.694031 603.004150,299.452545 
	C602.996582,274.000031 602.963806,248.547394 603.044128,223.095123 
	C603.054626,219.784698 603.665283,216.476181 603.997986,213.166779 
z"/>
<path fill="#CC2830" opacity="1.000000" stroke="none" 
	d="
M465.997162,213.163788 
	C478.688110,213.116928 491.379028,213.070084 504.525665,213.482452 
	C504.320892,218.815704 503.074036,223.692551 503.097473,228.563263 
	C503.226288,255.346191 503.665894,282.127625 503.998871,308.909546 
	C491.972198,308.875305 479.945557,308.841034 467.445526,308.337463 
	C466.314789,303.506958 465.125763,299.150208 465.089111,294.783813 
	C464.898041,272.018860 464.947662,249.251175 465.045105,226.485016 
	C465.064087,222.043335 465.664764,217.604126 465.997162,213.163788 
z"/>
<path fill="#E53B35" opacity="1.000000" stroke="none" 
	d="
M643.447266,310.710327 
	C642.657288,278.436981 642.327942,246.259842 641.997131,213.625061 
	C654.353455,213.120422 666.711304,213.073410 679.532166,213.514328 
	C679.663513,216.776001 679.051697,219.548935 679.043640,222.323608 
	C678.969543,247.861588 678.956970,273.400024 679.044678,298.937927 
	C679.058472,302.941193 679.665955,306.942413 679.998962,310.944580 
	C667.968567,310.898560 655.938232,310.852539 643.447266,310.710327 
z"/>
<path fill="#CF2A30" opacity="1.000000" stroke="none" 
	d="
M262.462189,272.036682 
	C260.543762,270.367981 259.086548,268.789337 258.390808,268.035614 
	C258.965820,262.716156 259.897339,257.935272 259.929626,253.148331 
	C260.085724,230.014343 259.965149,206.878586 260.043304,183.743820 
	C260.053253,180.792770 260.652771,177.843704 260.990112,174.474319 
	C272.360718,173.991684 283.720276,173.928436 295.596069,174.370483 
	C296.408203,177.159592 296.978882,179.445877 296.958374,181.726852 
	C296.687683,211.801529 296.333771,241.875443 296.000671,271.949585 
	C284.974945,272.008606 273.949158,272.067657 262.462189,272.036682 
z"/>
<path fill="#2CA346" opacity="1.000000" stroke="none" 
	d="
M672.456360,190.288696 
	C672.018311,171.760803 671.816650,153.351639 672.110596,134.950394 
	C672.311707,122.363533 673.489685,109.791786 673.669250,97.205269 
	C673.762939,90.642502 672.641846,84.062416 672.110107,77.036499 
	C684.945618,88.303802 697.740540,100.024750 710.751526,112.389999 
	C710.978088,116.256912 711.097473,119.483620 710.976624,122.701317 
	C710.716736,129.618927 710.108887,136.529846 710.045532,143.447159 
	C709.903015,159.017807 710.005188,174.590698 710.007812,190.162674 
	C697.639893,190.245392 685.271912,190.328110 672.456360,190.288696 
z"/>
<path fill="#E53B35" opacity="1.000000" stroke="none" 
	d="
M145.673584,281.147278 
	C132.860794,269.452881 120.048264,257.758179 107.234360,246.065002 
	C106.624184,245.508163 106.001770,244.964737 105.251556,243.774506 
	C109.106354,239.567108 109.244049,234.921616 109.049751,230.035538 
	C108.832840,224.580688 109.094856,219.108582 108.981155,213.647461 
	C108.706314,200.447357 108.334122,187.249313 108.001175,174.050415 
	C120.360527,173.989044 132.719879,173.927673 145.595566,174.369980 
	C146.407928,176.821579 146.946915,178.767380 146.963730,180.717682 
	C147.239868,212.750595 147.476562,244.783981 147.589172,276.817719 
	C147.594238,278.258636 146.340820,279.703979 145.673584,281.147278 
z"/>
<path fill="#C6232F" opacity="1.000000" stroke="none" 
	d="
M364.540894,173.960632 
	C365.334320,176.660950 365.948944,179.266006 365.956329,181.872772 
	C366.028717,207.418182 366.085968,232.964432 365.914764,258.508881 
	C365.886444,262.734924 364.733246,266.953400 363.580414,271.597168 
	C351.373199,272.002319 339.685425,271.985657 327.992004,271.587311 
	C327.495850,268.856354 326.438507,266.638702 329.351471,264.681458 
	C330.499054,263.910400 330.943848,261.405029 330.929718,259.695862 
	C330.693268,231.147736 330.333252,202.600632 330.000732,174.053314 
	C341.360596,173.990921 352.720428,173.928528 364.540894,173.960632 
z"/>
<path fill="#D93232" opacity="1.000000" stroke="none" 
	d="
M603.534180,213.096237 
	C603.665283,216.476181 603.054626,219.784698 603.044128,223.095123 
	C602.963806,248.547394 602.996582,274.000031 603.004150,299.452545 
	C603.005066,302.694031 603.062927,305.935486 603.046936,309.560150 
	C591.973938,309.955109 580.948303,309.966888 569.460388,309.474915 
	C568.665344,301.687134 568.081482,294.404388 568.045715,287.118958 
	C567.924988,262.468414 567.998535,237.816925 567.997803,213.165802 
	C579.688660,213.119095 591.379456,213.072388 603.534180,213.096237 
z"/>
<path fill="#EB3E36" opacity="1.000000" stroke="none" 
	d="
M680.450745,311.034515 
	C679.665955,306.942413 679.058472,302.941193 679.044678,298.937927 
	C678.956970,273.400024 678.969543,247.861588 679.043640,222.323608 
	C679.051697,219.548935 679.663513,216.776001 679.995972,213.584229 
	C694.020935,213.119598 708.045227,213.073029 722.534058,213.476410 
	C722.919556,215.049316 722.840576,216.172272 722.755371,217.383087 
	C717.564209,215.402130 716.404297,216.196838 716.016541,221.726501 
	C715.958618,222.551697 716.000366,223.384064 716.000305,224.213120 
	C715.999817,240.794693 715.830505,257.379425 716.139343,273.955261 
	C716.203064,277.373413 718.049561,280.758331 719.074280,284.158569 
	C710.191650,292.759827 701.619385,301.726685 692.213257,309.711334 
	C689.789673,311.768707 684.743774,310.737061 680.450745,311.034515 
z"/>
<path fill="#C6232F" opacity="1.000000" stroke="none" 
	d="
M465.533386,213.093109 
	C465.664764,217.604126 465.064087,222.043335 465.045105,226.485016 
	C464.947662,249.251175 464.898041,272.018860 465.089111,294.783813 
	C465.125763,299.150208 466.314789,303.506958 466.986298,308.241211 
	C454.640289,308.454956 442.280182,308.295624 429.459534,308.041382 
	C429.332153,278.409973 429.683136,248.873657 429.954071,219.336594 
	C429.970367,217.558197 429.348083,215.773941 429.009644,213.580231 
	C441.020782,213.119522 453.045197,213.070969 465.533386,213.093109 
z"/>
<path fill="#CA272F" opacity="1.000000" stroke="none" 
	d="
M329.540131,173.959152 
	C330.333252,202.600632 330.693268,231.147736 330.929718,259.695862 
	C330.943848,261.405029 330.499054,263.910400 329.351471,264.681458 
	C326.438507,266.638702 327.495850,268.856354 327.524170,271.613708 
	C319.368408,272.057312 311.674774,272.092743 303.981171,272.128204 
	C301.611267,272.129150 299.241394,272.130127 296.436096,272.040344 
	C296.333771,241.875443 296.687683,211.801529 296.958374,181.726852 
	C296.978882,179.445877 296.408203,177.159592 296.056824,174.464142 
	C307.027405,173.990021 318.053467,173.927505 329.540131,173.959152 
z"/>
<path fill="#D52E31" opacity="1.000000" stroke="none" 
	d="
M567.533936,213.095612 
	C567.998535,237.816925 567.924988,262.468414 568.045715,287.118958 
	C568.081482,294.404388 568.665344,301.687134 568.997925,309.393677 
	C557.967041,309.699463 546.936340,309.582703 535.455444,308.904846 
	C535.003479,280.026917 535.001831,251.710037 534.999939,223.393173 
	C534.999695,219.984344 534.998596,216.575531 534.997925,213.166702 
	C545.688660,213.119614 556.379333,213.072525 567.533936,213.095612 
z"/>
<path fill="#D02B31" opacity="1.000000" stroke="none" 
	d="
M534.534180,213.095703 
	C534.998596,216.575531 534.999695,219.984344 534.999939,223.393173 
	C535.001831,251.710037 535.003479,280.026917 535.013550,308.755615 
	C524.986023,309.154205 514.950256,309.141022 504.456665,309.018677 
	C503.665894,282.127625 503.226288,255.346191 503.097473,228.563263 
	C503.074036,223.692551 504.320892,218.815704 504.989258,213.553955 
	C514.688232,213.119049 524.379333,213.071884 534.534180,213.095703 
z"/>
<path fill="#2CA346" opacity="1.000000" stroke="none" 
	d="
M153.017303,53.379402 
	C163.071411,53.452003 173.125534,53.524601 183.589020,54.198788 
	C183.998932,83.251900 183.999405,111.703423 184.000061,140.154953 
	C184.000137,143.750641 184.001083,147.346344 184.001617,150.942032 
	C173.642792,151.002548 163.283951,151.063080 152.463165,150.604431 
	C152.334137,142.475677 152.914825,134.867401 152.954391,127.256332 
	C153.082352,102.631241 153.011536,78.005127 153.017303,53.379402 
z"/>
<path fill="#EF4237" opacity="1.000000" stroke="none" 
	d="
M719.386719,284.027283 
	C718.049561,280.758331 716.203064,277.373413 716.139343,273.955261 
	C715.830505,257.379425 715.999817,240.794693 716.000305,224.213120 
	C716.000366,223.384064 715.958618,222.551697 716.016541,221.726501 
	C716.404297,216.196838 717.564209,215.402130 722.755371,217.383087 
	C722.840576,216.172272 722.919556,215.049316 722.997864,213.545990 
	C746.948425,213.165634 770.899780,213.165634 796.033813,213.165634 
	C770.172424,237.128326 744.935791,260.512177 719.386719,284.027283 
z"/>
<path fill="#EC3F36" opacity="1.000000" stroke="none" 
	d="
M107.539978,173.959229 
	C108.334122,187.249313 108.706314,200.447357 108.981155,213.647461 
	C109.094856,219.108582 108.832840,224.580688 109.049751,230.035538 
	C109.244049,234.921616 109.106354,239.567108 105.086189,243.481293 
	C85.689384,226.072830 66.320465,208.321365 46.961967,190.558563 
	C41.229904,185.298996 35.527164,180.007507 28.876585,173.868042 
	C55.702282,173.868042 81.390526,173.868042 107.539978,173.959229 
z"/>
<path fill="#117E3E" opacity="1.000000" stroke="none" 
	d="
M541.963440,190.175293 
	C532.235413,190.270233 522.507385,190.365173 512.390930,189.924835 
	C512.001648,182.981705 511.901978,176.571976 512.020081,170.166290 
	C512.289612,155.550110 512.763062,140.937225 512.967468,126.320404 
	C513.126953,114.916870 513.005859,103.509415 513.476135,92.067886 
	C516.156616,91.992104 518.370422,91.952141 520.584167,91.912170 
	C527.745789,91.948730 534.907349,91.985283 542.533447,92.517624 
	C542.653076,125.400703 542.308289,157.788010 541.963440,190.175293 
z"/>
<path fill="#E03733" opacity="1.000000" stroke="none" 
	d="
M145.827972,281.453613 
	C146.340820,279.703979 147.594238,278.258636 147.589172,276.817719 
	C147.476562,244.783981 147.239868,212.750595 146.963730,180.717682 
	C146.946915,178.767380 146.407928,176.821579 146.056610,174.461914 
	C155.360504,173.988708 164.719696,173.927231 174.539856,173.958252 
	C174.704514,174.806610 174.589828,176.056259 174.083923,176.242340 
	C168.741974,178.207336 170.019531,182.705032 170.016281,186.643585 
	C169.988052,220.892822 170.015366,255.142105 169.976151,289.391327 
	C169.972229,292.806458 170.109451,295.777161 173.390900,298.130920 
	C176.279083,300.202637 175.263275,303.087158 173.062012,305.867340 
	C163.926208,298.060303 154.954285,289.910095 145.827972,281.453613 
z"/>
<path fill="#1E9142" opacity="1.000000" stroke="none" 
	d="
M238.015640,54.383911 
	C246.737732,54.450439 255.459824,54.516968 264.590210,55.190311 
	C264.999481,87.513000 265.000427,119.228874 265.001373,150.944748 
	C255.975662,151.004761 246.949951,151.064774 237.462372,150.593643 
	C236.667023,141.467300 236.123993,132.874069 236.044724,124.276535 
	C235.891571,107.664871 235.811844,91.047623 236.092102,74.439278 
	C236.205078,67.745247 237.343765,61.068516 238.015640,54.383911 
z"/>
<path fill="#249844" opacity="1.000000" stroke="none" 
	d="
M237.563019,54.248177 
	C237.343765,61.068516 236.205078,67.745247 236.092102,74.439278 
	C235.811844,91.047623 235.891571,107.664871 236.044724,124.276535 
	C236.123993,132.874069 236.667023,141.467300 237.001160,150.504303 
	C228.308807,151.005814 219.615814,151.065491 210.414581,150.651306 
	C209.270905,146.981400 208.105103,143.788757 208.084503,140.588730 
	C207.929504,116.514809 207.946732,92.439217 208.045273,68.364700 
	C208.064804,63.594463 208.667282,58.826607 209.000916,54.057655 
	C218.370758,54.075916 227.740585,54.094177 237.563019,54.248177 
z"/>
<path fill="#3AB54A" opacity="1.000000" stroke="none" 
	d="
M30.023191,150.253738 
	C54.397259,127.559708 78.771446,104.865799 103.144798,82.170998 
	C103.875923,81.490219 104.598328,80.800079 105.653610,80.451431 
	C105.654877,85.574089 105.080536,90.357788 105.044876,95.145493 
	C104.925873,111.129265 104.954887,127.114731 105.044708,143.098877 
	C105.059425,145.716339 105.667702,148.330475 106.001648,150.946136 
	C80.969971,150.994232 55.938286,151.042343 30.472649,150.800339 
	C30.038691,150.510239 30.023190,150.253738 30.023191,150.253738 
z"/>
<path fill="#117E3E" opacity="1.000000" stroke="none" 
	d="
M346.001465,150.946075 
	C336.642059,151.008041 327.282654,151.070007 317.461945,150.574280 
	C317.001831,118.399353 317.003021,86.782089 317.004211,55.164825 
	C326.135712,55.184147 335.267181,55.203472 344.722839,55.936188 
	C345.031342,83.236931 344.965759,109.824432 345.045532,136.411499 
	C345.060089,141.257278 345.667664,146.101257 346.001465,150.946075 
z"/>
<path fill="#16853F" opacity="1.000000" stroke="none" 
	d="
M316.540588,55.089687 
	C317.003021,86.782089 317.001831,118.399353 317.001282,150.481750 
	C308.308899,151.007858 299.615875,151.068817 290.461578,150.600983 
	C289.667328,118.400482 289.334320,86.728767 289.001312,55.057045 
	C298.026520,55.042877 307.051758,55.028713 316.540588,55.089687 
z"/>
<path fill="#32AB48" opacity="1.000000" stroke="none" 
	d="
M710.453979,190.280151 
	C710.005188,174.590698 709.903015,159.017807 710.045532,143.447159 
	C710.108887,136.529846 710.716736,129.618927 710.976624,122.701317 
	C711.097473,119.483620 710.978088,116.256912 710.978027,112.647537 
	C725.465393,125.539520 739.942444,138.818253 754.226685,152.567520 
	C753.511169,155.630814 752.551575,158.228165 752.578735,160.815125 
	C752.610840,163.867569 753.945740,166.914749 753.920593,169.957611 
	C753.864685,176.709335 753.312317,183.456940 752.962402,190.206223 
	C738.941589,190.270020 724.920898,190.333817 710.453979,190.280151 
z"/>
<path fill="#16853F" opacity="1.000000" stroke="none" 
	d="
M542.411011,190.323837 
	C542.308289,157.788010 542.653076,125.400703 542.996826,92.589523 
	C551.020142,92.117950 559.044495,92.070251 567.533936,92.523499 
	C568.215332,94.826401 568.621155,96.628868 568.616394,98.430244 
	C568.591614,107.714386 568.710571,117.010078 568.270630,126.277580 
	C568.024902,131.452179 566.280579,136.562637 566.106567,141.732117 
	C565.750977,152.295227 565.779907,162.885117 566.089478,173.451111 
	C566.253174,179.037369 567.339050,184.596603 568.008667,190.168030 
	C559.625305,190.269485 551.242004,190.370926 542.411011,190.323837 
z"/>
<path fill="#08733A" opacity="1.000000" stroke="none" 
	d="
M488.965271,190.168701 
	C481.277618,190.268280 473.589935,190.367859 465.452209,189.940369 
	C464.668121,183.316864 463.908661,177.207825 464.088837,171.126617 
	C464.460388,158.586395 465.747314,146.065689 465.888947,133.528290 
	C466.044952,119.719101 465.338135,105.900169 465.474396,92.055458 
	C473.963623,92.047874 481.985657,92.070312 490.005157,92.555527 
	C490.335114,102.432167 491.089203,111.853767 490.916412,121.258339 
	C490.494324,144.232651 489.643524,167.199097 488.965271,190.168701 
z"/>
<path fill="#046E39" opacity="1.000000" stroke="none" 
	d="
M465.007172,92.085480 
	C465.338135,105.900169 466.044952,119.719101 465.888947,133.528290 
	C465.747314,146.065689 464.460388,158.586395 464.088837,171.126617 
	C463.908661,177.207825 464.668121,183.316864 465.008423,189.793289 
	C457.566376,190.269592 450.118073,190.365891 442.314453,190.313385 
	C438.176300,183.281036 438.034607,175.595413 439.198395,168.406693 
	C442.382233,148.739182 440.296326,129.014893 441.026367,109.337929 
	C441.061737,108.385292 441.123230,106.917320 441.696442,106.580200 
	C447.937195,102.910065 444.398834,97.626488 444.528229,92.455826 
	C451.629730,92.043221 458.318451,92.064346 465.007172,92.085480 
z"/>
<path fill="#046E39" opacity="1.000000" stroke="none" 
	d="
M415.550232,56.284126 
	C416.003143,66.360924 416.220245,76.345757 415.938599,86.316490 
	C415.456970,103.365242 414.509064,120.401550 414.109039,137.451355 
	C414.010132,141.667221 415.264008,145.914841 415.948364,150.545441 
	C407.307800,151.004898 398.614868,151.066742 389.461426,150.592850 
	C389.335144,118.760910 389.669373,87.464722 390.003632,56.168537 
	C398.365753,56.174294 406.727905,56.180050 415.550232,56.284126 
z"/>
<path fill="#279D44" opacity="1.000000" stroke="none" 
	d="
M208.541626,53.964897 
	C208.667282,58.826607 208.064804,63.594463 208.045273,68.364700 
	C207.946732,92.439217 207.929504,116.514809 208.084503,140.588730 
	C208.105103,143.788757 209.270905,146.981400 209.953522,150.560577 
	C201.641830,151.002747 193.282990,151.061798 184.462875,151.031433 
	C184.001083,147.346344 184.000137,143.750641 184.000061,140.154953 
	C183.999405,111.703423 183.998932,83.251900 183.997009,54.319839 
	C192.024521,53.850246 200.053436,53.861191 208.541626,53.964897 
z"/>
<path fill="#1A8C40" opacity="1.000000" stroke="none" 
	d="
M288.555481,54.960732 
	C289.334320,86.728767 289.667328,118.400482 290.000854,150.508698 
	C281.975281,151.006088 273.949188,151.067001 265.462250,151.036316 
	C265.000427,119.228874 264.999481,87.513000 264.997314,55.316650 
	C272.700623,54.845585 280.405121,54.855003 288.555481,54.960732 
z"/>
<path fill="#35AF49" opacity="1.000000" stroke="none" 
	d="
M106.463455,151.032166 
	C105.667702,148.330475 105.059425,145.716339 105.044708,143.098877 
	C104.954887,127.114731 104.925873,111.129265 105.044876,95.145493 
	C105.080536,90.357788 105.654877,85.574089 105.968338,80.324951 
	C112.816803,73.349220 119.679359,66.837097 127.195709,60.215271 
	C132.530365,62.350746 133.130219,66.577888 132.981033,71.031830 
	C132.088959,97.663727 135.092697,124.392586 131.000977,150.944122 
	C122.975746,151.002151 114.950508,151.060181 106.463455,151.032166 
z"/>
<path fill="#08733A" opacity="1.000000" stroke="none" 
	d="
M389.540283,56.088932 
	C389.669373,87.464722 389.335144,118.760910 389.001038,150.498596 
	C382.308075,151.003586 375.614929,151.067093 368.410095,150.653839 
	C367.265625,147.679352 366.093597,145.184052 366.082397,142.683548 
	C365.952637,113.759102 365.998474,84.833878 365.997711,55.908859 
	C373.690765,55.942348 381.383850,55.975838 389.540283,56.088932 
z"/>
<path fill="#0C783C" opacity="1.000000" stroke="none" 
	d="
M489.414062,190.315674 
	C489.643524,167.199097 490.494324,144.232651 490.916412,121.258339 
	C491.089203,111.853767 490.335114,102.432167 490.472168,92.522598 
	C498.297577,92.052490 505.653503,92.078102 513.009399,92.103714 
	C513.005859,103.509415 513.126953,114.916870 512.967468,126.320404 
	C512.763062,140.937225 512.289612,155.550110 512.020081,170.166290 
	C511.901978,176.571976 512.001648,182.981705 512.007935,189.778351 
	C504.629822,190.265625 497.246338,190.364136 489.414062,190.315674 
z"/>
<path fill="#1A8C40" opacity="1.000000" stroke="none" 
	d="
M568.427246,190.294846 
	C567.339050,184.596603 566.253174,179.037369 566.089478,173.451111 
	C565.779907,162.885117 565.750977,152.295227 566.106567,141.732117 
	C566.280579,136.562637 568.024902,131.452179 568.270630,126.277580 
	C568.710571,117.010078 568.591614,107.714386 568.616394,98.430244 
	C568.621155,96.628868 568.215332,94.826401 567.997375,92.595047 
	C574.687561,92.117798 581.379333,92.069931 588.596375,92.493591 
	C589.081116,98.360016 589.010254,103.754883 589.005554,109.149811 
	C588.990540,126.434883 589.267029,143.725708 588.895813,161.002823 
	C588.686829,170.730072 591.211365,180.698532 586.967529,190.172516 
	C580.927002,190.255554 574.886475,190.338608 568.427246,190.294846 
z"/>
<path fill="#0C783C" opacity="1.000000" stroke="none" 
	d="
M365.595764,55.748940 
	C365.998474,84.833878 365.952637,113.759102 366.082397,142.683548 
	C366.093597,145.184052 367.265625,147.679352 367.949738,150.560349 
	C360.974884,151.006393 353.948700,151.069153 346.462036,151.039001 
	C345.667664,146.101257 345.060089,141.257278 345.045532,136.411499 
	C344.965759,109.824432 345.031342,83.236931 345.078522,56.159527 
	C351.804626,55.642658 358.499207,55.615837 365.595764,55.748940 
z"/>
<path fill="#32AB48" opacity="1.000000" stroke="none" 
	d="
M131.462402,151.032166 
	C135.092697,124.392586 132.088959,97.663727 132.981033,71.031830 
	C133.130219,66.577888 132.530365,62.350746 127.503891,60.076454 
	C130.438690,54.825794 134.747147,51.935261 141.307831,52.915379 
	C144.838333,53.442806 148.496262,53.117283 152.557007,53.278008 
	C153.011536,78.005127 153.082352,102.631241 152.954391,127.256332 
	C152.914825,134.867401 152.334137,142.475677 152.001755,150.516235 
	C145.309479,151.004883 138.616669,151.062546 131.462402,151.032166 
z"/>
<path fill="#1C8F41" opacity="1.000000" stroke="none" 
	d="
M587.416443,190.318588 
	C591.211365,180.698532 588.686829,170.730072 588.895813,161.002823 
	C589.267029,143.725708 588.990540,126.434883 589.005554,109.149811 
	C589.010254,103.754883 589.081116,98.360016 589.059814,92.565521 
	C595.042908,92.112305 601.087769,92.058693 607.606262,92.015373 
	C610.484985,91.993881 611.065796,92.549461 610.366089,95.305275 
	C609.572388,98.431068 610.035889,101.901894 610.130676,105.217628 
	C610.186096,107.158043 610.929138,109.117317 610.768494,111.017876 
	C610.355896,115.899147 609.226685,120.740044 609.070435,125.619064 
	C608.550659,141.846924 609.111633,158.157532 607.599121,174.280762 
	C607.028381,180.365173 610.080078,184.409607 611.009644,189.825775 
	C603.299255,190.270203 595.582275,190.367432 587.416443,190.318588 
z"/>
<path fill="#780816" opacity="1.000000" stroke="none" 
	d="
M304.037842,272.581604 
	C311.674774,272.092743 319.368408,272.057312 327.529846,271.995422 
	C339.685425,271.985657 351.373199,272.002319 363.528900,271.997070 
	C375.286499,271.975128 386.576172,271.975128 397.865814,271.975128 
	C397.929993,272.239136 397.994141,272.503143 398.058289,272.767151 
	C367.850922,283.628357 337.643555,294.489563 306.856567,305.632446 
	C305.649200,305.967621 305.021454,306.021179 304.393738,306.074707 
	C304.294006,295.061462 304.194244,284.048218 304.037842,272.581604 
z"/>
<path fill="#002C16" opacity="1.000000" stroke="none" 
	d="
M513.476135,92.067886 
	C505.653503,92.078102 498.297577,92.052490 490.474670,92.059814 
	C481.985657,92.070312 473.963623,92.047874 465.474396,92.055458 
	C458.318451,92.064346 451.629730,92.043221 444.473694,92.049210 
	C438.701904,92.076324 433.397400,92.076324 428.092926,92.076324 
	C428.009857,91.770073 427.926788,91.463814 427.843689,91.157562 
	C458.322571,80.206062 488.801453,69.254570 519.602478,58.134583 
	C520.118286,69.005310 520.311951,80.044533 520.544922,91.497971 
	C518.370422,91.952141 516.156616,91.992104 513.476135,92.067886 
z"/>
<path fill="#46B558" opacity="1.000000" stroke="none" 
	d="
M753.333374,190.374741 
	C753.312317,183.456940 753.864685,176.709335 753.920593,169.957611 
	C753.945740,166.914749 752.610840,163.867569 752.578735,160.815125 
	C752.551575,158.228165 753.511169,155.630814 754.425537,152.858917 
	C768.309998,164.927933 781.802979,177.176102 795.295959,189.424271 
	C795.154175,189.797272 795.012390,190.170258 794.870605,190.543259 
	C781.148560,190.543259 767.426453,190.543259 753.333374,190.374741 
z"/>
<path fill="#CA272F" opacity="1.000000" stroke="none" 
	d="
M304.451233,306.382538 
	C305.021454,306.021179 305.649200,305.967621 306.588989,305.871582 
	C306.901062,305.829102 306.972900,306.237915 306.988098,306.444885 
	C306.171753,306.664734 305.340210,306.677551 304.451233,306.382538 
z"/>
<path fill="#46B558" opacity="1.000000" stroke="none" 
	d="
M29.858120,150.267136 
	C30.023190,150.253738 30.038691,150.510239 30.030258,150.638397 
	C30.021828,150.766541 29.589207,150.664993 29.589207,150.664993 
	C29.589207,150.664993 29.693052,150.280533 29.858120,150.267136 
z"/>
<path fill="#DC3332" opacity="1.000000" stroke="none" 
	d="
M219.582779,349.485352 
	C219.628906,349.170685 219.855072,349.127960 220.423706,349.041809 
	C220.431717,349.251343 220.097260,349.504364 219.582779,349.485352 
z"/>
<path fill="#EC3F36" opacity="1.000000" stroke="none" 
	d="
M401.043243,227.020081 
	C401.043304,222.728592 401.043304,218.932785 401.043304,215.136963 
	C401.259552,215.140076 401.475830,215.143188 401.692078,215.146301 
	C401.692078,233.638809 401.692078,252.131332 401.692078,270.623840 
	C401.475769,270.627686 401.259491,270.631561 401.043182,270.635406 
	C401.043182,256.262207 401.043182,241.888977 401.043243,227.020081 
z"/>
<path fill="#46B558" opacity="1.000000" stroke="none" 
	d="
M423.161987,117.000015 
	C423.162170,109.052406 423.162170,101.604782 423.162170,94.157158 
	C423.328430,94.158394 423.494659,94.159630 423.660919,94.160866 
	C423.660919,112.393799 423.660919,130.626740 423.660919,148.859665 
	C423.494537,148.860657 423.328156,148.861649 423.161774,148.862640 
	C423.161774,138.408432 423.161774,127.954216 423.161987,117.000015 
z"/>
</svg>